<?xml version="1.0" standalone="no"?>
<!DOCTYPE svg PUBLIC "-//W3C//DTD SVG 20010904//EN"
 "http://www.w3.org/TR/2001/REC-SVG-20010904/DTD/svg10.dtd">
<svg version="1.0" xmlns="http://www.w3.org/2000/svg"
 width="300.000000pt" height="300.000000pt" viewBox="0 0 300.000000 300.000000"
 preserveAspectRatio="xMidYMid meet">
<metadata>
Created by potrace 1.14, written by Peter Selinger 2001-2017
</metadata>
<g transform="translate(0.000000,300.000000) scale(0.100000,-0.100000)"
fill="#000000" stroke="none">
<path d="M0 2335 c0 -634 2 -688 27 -724 1 -2 9 2 17 8 12 10 16 8 20 -7 6
-19 9 -19 66 -4 37 10 60 22 60 30 0 9 6 12 16 8 9 -3 29 -6 45 -6 20 0 29 -5
29 -16 0 -8 4 -12 10 -9 5 3 10 -1 10 -9 0 -20 -5 -20 -35 0 -14 9 -25 12 -25
6 0 -5 9 -12 21 -15 40 -11 15 -32 -37 -30 -44 0 -49 3 -46 22 2 11 -1 21 -5
21 -12 0 -14 -38 -3 -45 5 -3 8 -11 6 -18 -1 -7 -1 -9 1 -4 8 13 54 7 59 -8 8
-19 24 -20 24 -2 0 8 14 26 30 41 17 15 29 30 26 34 -7 12 78 0 87 -12 5 -7
11 -6 18 7 11 19 59 24 59 6 0 -18 152 -1 167 19 7 9 13 11 13 5 0 -7 6 -18
14 -26 16 -16 10 -61 -7 -50 -6 4 -7 1 -2 -7 4 -7 3 -15 -2 -19 -6 -3 -14 -17
-17 -31 -6 -21 -4 -20 13 8 71 111 103 197 185 492 82 295 171 432 330 511
108 53 197 68 304 50 109 -18 192 -46 243 -81 24 -16 62 -35 83 -41 56 -15
124 -90 176 -193 38 -75 44 -95 43 -144 -2 -81 -47 -295 -72 -340 -50 -93 -80
-162 -93 -219 -8 -34 -11 -60 -7 -57 4 2 13 29 20 58 8 36 16 53 24 49 7 -2
16 0 20 6 8 14 245 15 245 1 0 -5 18 -10 40 -10 22 0 40 4 40 9 0 5 67 7 160
4 117 -4 160 -3 160 6 0 6 4 11 10 11 5 0 7 -7 4 -15 -4 -8 -1 -15 5 -15 6 0
11 5 11 10 0 6 12 10 26 10 21 0 24 -3 19 -22 -5 -19 -4 -20 5 -6 14 22 3 46
-23 51 -19 4 -18 4 4 6 30 1 39 -14 39 -60 0 -17 5 -39 10 -50 12 -21 1 -25
-19 -6 -11 10 -11 8 0 -10 12 -20 15 -21 29 -8 19 17 80 20 80 5 0 -5 5 -10
12 -10 6 0 3 9 -7 20 -13 15 -29 20 -54 18 -31 -3 -36 0 -39 20 -2 15 2 22 12
22 9 0 16 -5 16 -11 0 -18 43 -5 46 14 2 16 -3 18 -37 12 -32 -6 -39 -4 -39 9
0 11 9 16 30 16 16 0 37 9 48 20 19 20 19 20 15 -25 -3 -30 -1 -45 7 -45 6 0
8 -5 4 -12 -5 -7 -3 -8 5 -3 8 4 9 11 3 17 -5 5 -7 20 -4 34 2 14 7 21 11 16
3 -5 48 -11 98 -13 71 -3 94 -1 98 9 3 8 3 18 0 22 -3 5 -1 11 5 15 7 4 10
233 10 676 l0 669 -1500 0 -1500 0 0 -665z m1468 433 c35 -35 -15 -99 -53 -68
-30 25 -12 80 25 80 9 0 21 -5 28 -12z m-138 -42 c0 -13 -6 -29 -14 -35 -12
-10 -14 -6 -13 20 1 19 -3 34 -12 37 -10 3 -12 -4 -9 -32 3 -24 0 -36 -8 -36
-7 0 -14 18 -16 40 -3 33 0 40 17 43 31 5 55 -11 55 -37z m46 9 c6 -32 1 -55
-10 -44 -11 11 -17 79 -8 79 6 0 14 -16 18 -35z m222 3 c13 -36 6 -53 -11 -23
-11 19 -11 19 -18 -5 -5 -19 -7 -14 -5 17 1 51 17 56 34 11z m52 -14 c0 -32
-4 -44 -12 -42 -13 5 -19 51 -10 76 10 28 22 9 22 -34z m83 -21 c4 -18 3 -33
-2 -33 -12 0 -32 60 -25 72 9 14 20 -2 27 -39z m-514 6 c13 -17 20 -33 17 -37
-8 -7 -56 42 -56 58 0 18 14 10 39 -21z m602 21 c5 0 8 -18 6 -40 -2 -41 -13
-52 -24 -24 -5 15 -7 15 -15 0 -16 -29 -26 -8 -15 34 8 28 16 39 25 35 7 -3
18 -5 23 -5z m-698 -35 c-1 -11 5 -24 13 -28 8 -5 12 -13 8 -18 -4 -6 -14 -3
-27 8 -19 16 -20 16 -14 1 3 -10 2 -20 -3 -23 -5 -3 -14 11 -19 32 -14 51 -15
50 17 49 21 -1 27 -6 25 -21z m571 1 c-6 -16 -24 -23 -24 -8 0 10 22 33 27 28
2 -2 1 -11 -3 -20z m196 7 c0 -18 -25 -73 -33 -73 -5 0 -6 7 -3 16 3 9 9 27
12 40 5 21 24 35 24 17z m-700 -10 c0 -5 -5 -15 -10 -23 -8 -12 -10 -11 -10 8
0 12 5 22 10 22 6 0 10 -3 10 -7z m770 -53 c0 -22 -4 -40 -10 -40 -5 0 -10 18
-10 40 0 22 5 40 10 40 6 0 10 -18 10 -40z m-43 -14 c-21 -22 -30 -6 -10 16
10 11 19 15 21 9 2 -6 -3 -17 -11 -25z m-973 -12 c15 -14 26 -28 22 -31 -3 -3
-14 1 -24 10 -25 23 -30 21 -24 -8 2 -15 0 -25 -7 -25 -6 0 -10 16 -9 40 1 22
4 40 7 40 3 0 19 -12 35 -26z m-79 -34 c16 -30 13 -50 -6 -50 -6 0 -7 5 -4 10
4 6 0 22 -9 35 -19 28 -20 35 -6 35 5 0 17 -14 25 -30z m1270 -7 c-18 -43 -17
-60 4 -66 12 -3 21 -1 21 4 0 5 5 9 10 9 15 0 12 -15 -9 -38 -19 -23 -51 -30
-51 -12 0 6 8 10 17 10 13 0 11 5 -9 21 -26 21 -26 22 -10 55 16 34 40 49 27
17z m-1317 -28 c16 -25 18 -35 9 -35 -12 0 -20 12 -45 63 -2 4 0 7 5 7 4 0 18
-16 31 -35z m-58 -21 c0 -9 9 -18 20 -21 11 -3 17 -9 14 -15 -3 -5 -14 -6 -25
-3 -14 5 -17 3 -13 -9 10 -27 -11 -18 -35 15 -19 25 -21 33 -10 40 22 14 49
10 49 -7z m-40 -87 c0 -5 -6 -7 -12 -4 -34 14 -52 18 -43 10 13 -11 17 -53 5
-53 -6 0 -10 6 -10 14 0 7 -3 28 -6 45 l-7 32 37 -17 c20 -10 36 -22 36 -27z
m1580 34 c0 -5 -7 -14 -15 -21 -31 -26 -4 -63 37 -52 16 4 19 0 16 -18 -5 -34
-19 -33 -60 3 l-37 32 20 33 c20 30 39 42 39 23z m-60 -21 c-15 -28 -41 -40
-62 -29 -28 15 -21 29 11 23 20 -4 30 -2 34 10 4 9 11 16 17 16 8 0 8 -6 0
-20z m-1594 -87 c-4 -4 -13 0 -20 10 -7 9 -18 17 -24 17 -12 0 -23 26 -14 34
3 4 19 -7 36 -23 16 -17 26 -34 22 -38z m-33 0 c17 -10 5 -24 -15 -18 -19 6
-21 5 -10 -6 26 -28 10 -31 -18 -4 -16 16 -30 33 -30 38 0 8 55 1 73 -10z
m-99 -92 c32 -35 -13 -83 -52 -55 -24 17 -28 44 -10 62 17 17 42 15 62 -7z
m1931 -31 c-25 -27 -61 -26 -68 2 -8 28 2 38 14 15 6 -9 15 -17 20 -17 6 0 8
4 4 9 -8 14 28 32 39 21 6 -6 2 -17 -9 -30z m20 -20 c3 -5 12 -7 20 -3 8 3 15
1 15 -3 0 -13 -60 -45 -71 -38 -14 9 -10 27 5 21 10 -4 12 0 9 14 -5 19 11 27
22 9z m-2024 -17 c27 -16 41 -53 19 -53 -5 0 -10 6 -10 13 0 8 -11 20 -25 27
-14 7 -25 17 -25 22 0 12 8 10 41 -9z m2086 -31 c22 18 28 0 8 -22 -22 -24
-41 -26 -49 -4 -8 22 3 39 17 25 7 -7 14 -7 24 1z m-2113 -23 c20 -12 34 -25
31 -29 -6 -10 -75 28 -75 41 0 13 4 12 44 -12z m2176 -6 c0 -11 -63 -53 -69
-47 -3 3 8 16 24 29 31 25 45 31 45 18z m-2186 -45 c14 -19 10 -43 -10 -66 -2
-3 -23 7 -73 35 -2 1 4 14 13 28 20 31 50 32 70 3z m2169 -59 c13 13 27 14 27
3 0 -12 -42 -29 -61 -25 -16 4 -32 37 -22 47 3 2 14 -5 25 -16 15 -14 23 -17
31 -9z m-2193 -39 c0 -5 -6 -10 -14 -10 -21 0 -31 -21 -15 -31 7 -4 10 -11 6
-15 -10 -10 -39 17 -33 31 2 7 -3 12 -11 11 -9 0 -18 5 -20 12 -3 8 9 12 41
12 25 0 46 -4 46 -10z m-76 -79 c3 -5 16 -7 28 -3 14 3 19 2 14 -6 -4 -7 -14
-12 -22 -12 -8 0 -14 -4 -14 -10 0 -5 5 -10 10 -10 6 0 10 -4 10 -10 0 -14
-11 -13 -54 5 -32 14 -35 17 -24 35 13 21 43 27 52 11z m2386 -2 c0 -6 -10
-19 -22 -30 l-23 -18 33 -1 c44 0 41 -24 -5 -38 -44 -13 -71 1 -32 17 24 10
24 10 2 10 -22 1 -34 21 -13 21 6 0 10 4 10 9 0 5 -10 7 -22 3 -35 -9 -11 16
25 27 44 13 47 13 47 0z m29 -131 c10 -3 2 -14 -22 -33 -35 -26 -65 -29 -39
-3 16 16 15 28 -3 28 -15 0 -20 12 -9 23 3 3 18 2 32 -3 15 -5 33 -10 41 -12z
m-2458 -58 c20 0 29 -5 29 -16 0 -10 -6 -14 -15 -10 -19 7 -19 1 1 -29 15 -23
15 -25 0 -25 -9 0 -16 6 -16 14 0 10 -9 14 -27 13 -25 -2 -28 2 -31 32 -3 28
-1 33 13 27 9 -3 30 -6 46 -6z m2487 -44 c-3 -26 -7 -31 -28 -30 -14 1 -29 -5
-33 -12 -4 -8 -12 -14 -17 -14 -16 0 -12 22 8 43 16 19 16 20 -5 8 -26 -13
-44 -15 -24 -2 11 7 12 13 4 23 -9 10 -1 13 43 14 l55 1 -3 -31z m-2040 -58
c-2 -5 -8 -9 -13 -9 -5 0 -11 4 -13 9 -1 5 4 9 13 9 9 0 14 -4 13 -9z m1199
-20 c-3 -7 -5 -2 -5 12 0 14 2 19 5 13 2 -7 2 -19 0 -25z m-1657 -58 c0 -5 -2
-10 -4 -10 -3 0 -8 5 -11 10 -3 6 -1 10 4 10 6 0 11 -4 11 -10z"/>
<path d="M1427 2763 c-10 -9 -9 -51 1 -57 18 -11 35 12 28 38 -6 26 -16 32
-29 19z"/>
<path d="M1795 2710 c-3 -5 -1 -10 4 -10 6 0 11 5 11 10 0 6 -2 10 -4 10 -3 0
-8 -4 -11 -10z"/>
<path d="M1090 2694 c0 -8 5 -12 10 -9 6 4 8 11 5 16 -9 14 -15 11 -15 -7z"/>
<path d="M726 2515 c4 -8 8 -15 10 -15 2 0 4 7 4 15 0 8 -4 15 -10 15 -5 0 -7
-7 -4 -15z"/>
<path d="M457 2264 c-11 -11 13 -34 35 -34 13 0 18 6 16 18 -3 17 -38 29 -51
16z"/>
<path d="M347 2093 c-11 -10 13 -33 34 -33 22 0 24 11 7 28 -13 13 -31 16 -41
5z"/>
<path d="M1790 2238 c-14 -6 -57 -14 -96 -18 -69 -7 -75 -9 -154 -73 -45 -36
-96 -88 -112 -114 -57 -89 -250 -493 -244 -509 3 -9 3 -21 -1 -27 -12 -20 -15
-59 -3 -52 5 3 10 16 10 28 1 21 1 21 12 2 11 -19 11 -19 19 0 4 11 8 34 8 52
1 37 10 63 22 63 4 0 6 -6 3 -13 -3 -8 2 -14 11 -14 10 0 13 6 10 17 -3 11 1
20 10 24 20 7 36 50 40 102 3 43 52 154 67 154 4 0 8 6 8 14 0 8 23 31 50 51
28 20 50 43 50 51 0 8 6 14 14 14 7 0 24 9 38 19 13 11 56 29 94 42 146 46
188 78 127 94 -16 4 -22 10 -15 12 10 4 9 10 -5 25 -18 20 -18 20 17 13 45 -9
60 -22 60 -49 0 -26 26 -66 44 -66 7 0 21 -9 31 -20 10 -11 21 -20 25 -20 12
0 4 58 -11 76 -18 22 -22 54 -6 54 26 0 38 -19 49 -78 12 -64 28 -74 28 -17 0
53 -18 81 -79 123 -67 47 -88 54 -121 40z m-561 -650 c-7 -13 -17 -27 -23 -31
-8 -6 -7 -10 2 -14 13 -5 7 -23 -9 -23 -14 0 -11 25 9 59 19 35 39 43 21 9z"/>
<path d="M1533 1840 c-35 -14 -28 -18 25 -13 29 3 64 -1 92 -12 78 -29 81 -29
74 -11 -7 18 -92 46 -138 45 -17 0 -41 -4 -53 -9z"/>
<path d="M1843 1793 c-23 -9 -13 -18 22 -20 36 -3 48 10 19 21 -18 7 -23 7
-41 -1z"/>
<path d="M1490 1765 c-9 -11 -3 -20 31 -45 44 -32 61 -32 107 -2 29 19 14 39
-37 47 -20 3 -48 8 -63 10 -15 2 -31 -2 -38 -10z m50 -15 c0 -5 -4 -10 -10
-10 -5 0 -10 5 -10 10 0 6 5 10 10 10 6 0 10 -4 10 -10z"/>
<path d="M1799 1730 c-1 -8 -1 -21 0 -27 1 -7 -3 -13 -9 -13 -18 0 -11 -18 10
-25 12 -4 26 0 36 9 8 9 20 16 25 16 21 0 7 20 -18 26 -16 4 -31 12 -35 18 -5
7 -8 6 -9 -4z"/>
<path d="M190 1610 c0 -5 7 -10 16 -10 8 0 12 5 9 10 -3 6 -10 10 -16 10 -5 0
-9 -4 -9 -10z"/>
<path d="M646 1605 c-9 -26 -7 -32 5 -12 6 10 9 21 6 23 -2 3 -7 -2 -11 -11z"/>
<path d="M160 1510 c0 -5 5 -10 10 -10 6 0 10 5 10 10 0 6 -4 10 -10 10 -5 0
-10 -4 -10 -10z"/>
<path d="M271 1504 c0 -11 3 -14 6 -6 3 7 2 16 -1 19 -3 4 -6 -2 -5 -13z"/>
<path d="M1153 1503 c-3 -10 -14 -37 -24 -60 -11 -23 -19 -46 -19 -51 0 -5
-11 -35 -25 -67 -31 -70 -25 -87 6 -20 19 40 24 45 30 29 7 -18 8 -18 8 -1 1
11 10 30 21 44 21 28 26 53 10 53 -5 0 -10 -7 -10 -15 0 -8 -5 -15 -11 -15 -7
0 -6 8 3 23 8 12 18 39 21 60 6 39 1 50 -10 20z"/>
<path d="M2710 1490 c-15 -9 -5 -30 15 -30 18 0 27 27 11 33 -7 3 -19 2 -26
-3z"/>
<path d="M210 1480 l25 -8 -22 -7 c-13 -4 -23 -11 -23 -16 0 -11 56 16 65 31
4 6 -9 10 -32 9 -34 -1 -35 -2 -13 -9z"/>
<path d="M1670 1470 c0 -5 9 -10 20 -10 11 0 20 5 20 10 0 6 -9 10 -20 10 -11
0 -20 -4 -20 -10z"/>
<path d="M2660 1461 c0 -5 5 -13 10 -16 6 -3 10 -2 10 4 0 5 -4 13 -10 16 -5
3 -10 2 -10 -4z"/>
<path d="M2740 1440 c-8 -5 -24 -7 -35 -4 -16 5 -18 4 -8 -7 9 -9 10 -16 2
-26 -20 -23 -2 -14 31 17 33 31 36 37 10 20z"/>
<path d="M184 1416 c11 -9 24 -16 30 -16 12 0 7 5 -24 19 -24 11 -24 11 -6 -3z"/>
<path d="M1576 1379 c21 -20 88 -42 98 -31 5 4 -99 52 -114 52 -2 0 5 -9 16
-21z"/>
<path d="M235 1380 c-3 -6 1 -7 9 -4 18 7 21 14 7 14 -6 0 -13 -4 -16 -10z"/>
<path d="M210 1319 c0 -5 5 -7 10 -4 6 3 10 8 10 11 0 2 -4 4 -10 4 -5 0 -10
-5 -10 -11z"/>
<path d="M981 1196 c-31 -33 -105 -63 -225 -93 -55 -14 -113 -31 -128 -39 -25
-13 -68 -24 -168 -43 l-35 -6 33 -23 c20 -15 39 -21 52 -17 15 5 20 2 20 -12
0 -11 7 -28 15 -39 15 -18 15 -18 12 6 -2 14 -7 33 -12 43 -11 27 2 47 31 47
40 0 79 -49 99 -127 10 -38 22 -75 27 -83 12 -20 2 47 -19 127 -20 78 -15 95
26 83 16 -4 50 -20 76 -35 25 -15 49 -25 52 -21 4 3 -1 23 -11 42 -9 20 -15
38 -12 41 9 9 156 11 162 2 14 -23 21 -3 20 60 0 55 4 74 18 90 28 31 -4 28
-33 -3z"/>
<path d="M1030 986 c0 -9 12 -21 26 -27 36 -13 37 -8 3 19 -24 19 -29 21 -29
8z"/>
<path d="M1421 963 c-1 -6 -4 -18 -7 -27 -4 -10 26 -49 93 -118 55 -57 122
-128 149 -158 123 -137 209 -219 218 -210 6 6 0 18 -17 34 -27 25 -37 43 -17
31 6 -3 10 -1 10 5 0 7 -6 10 -14 7 -15 -6 -49 30 -41 43 4 6 -3 10 -14 10
-14 0 -19 5 -15 15 4 9 -2 18 -17 24 -34 13 -73 57 -64 72 5 7 4 10 -3 5 -6
-3 -19 5 -29 20 -10 14 -33 41 -50 59 -18 19 -33 39 -33 45 0 6 -4 8 -10 5 -5
-3 -10 -1 -10 4 0 6 -7 11 -16 11 -8 0 -12 5 -9 10 3 6 -1 10 -9 10 -9 0 -21
9 -28 20 -7 11 -17 20 -23 20 -6 0 -18 17 -27 38 -9 20 -17 32 -17 25z"/>
<path d="M720 707 c0 -20 4 -38 9 -42 6 -3 7 10 4 32 -8 50 -13 55 -13 10z"/>
</g>
</svg>
